<svg xmlns="http://www.w3.org/2000/svg" viewBox="0 0 640 420" role="img" aria-label="Two engineers are members of one security group; the role is assigned to the group once, granting both access to a Key Vault. Membership, not per-person grants, is the control.">
<style>
.dg-box{fill:none;stroke:#16130F;stroke-width:1.5}
.dg-box.sub{stroke-dasharray:5 3;stroke-width:1.25}
.dg-label{font-family:'Space Mono',ui-monospace,monospace;font-size:9.5px;fill:#6B6357;letter-spacing:.08em;text-transform:uppercase}
.dg-prod{font-family:'Inter Tight',system-ui,sans-serif;font-size:11px;font-weight:500;fill:#16130F}
.dg-sub{font-family:'Inter Tight',system-ui,sans-serif;font-size:10px;fill:#4A443B}
.dg-arrow{stroke:#16130F;stroke-width:1.5;fill:none}
.dg-pen{stroke:#C4360E;stroke-width:2;fill:none;stroke-linecap:round}
.dg-pen-t{font-family:'Fraunces',Georgia,serif;font-style:italic;font-size:12.5px;fill:#C4360E}</style>
<rect x="0" y="0" width="640" height="420" fill="#FBF8F1"/>
<defs><marker id="ar" markerWidth="9" markerHeight="9" refX="8" refY="4.5" orient="auto"><path d="M0,0 L9,4.5 L0,9 Z" fill="#16130F"/></marker><marker id="arp" markerWidth="9" markerHeight="9" refX="8" refY="4.5" orient="auto"><path d="M0,0 L9,4.5 L0,9 Z" fill="#C4360E"/></marker></defs><rect class="dg-box" x="8" y="26" width="624" height="372" rx="4"/><text class="dg-label" x="18" y="20">Resource group · rg-lab-c</text><path class="dg-arrow" d="M78,116 L242,194" marker-end="url(#ar)"/><text class="dg-label" x="160" y="147" text-anchor="middle">member</text><path class="dg-arrow" d="M78,303 L242,217" marker-end="url(#ar)"/><text class="dg-label" x="160" y="252" text-anchor="middle">member</text><path class="dg-arrow" d="M288,217 L452,303" marker-end="url(#ar)"/><text class="dg-label" x="370" y="252" text-anchor="middle">role assigned once</text><svg x="40" y="90" width="30" height="30" id="e24671f6-f501-4952-a2db-8b0b1d329c17" xmlns="http://www.w3.org/2000/svg" viewBox="0 0 18 18"><defs><linearGradient id="be92901b-ec33-4c65-adf1-9b0eed06d677" x1="9" y1="6.88" x2="9" y2="20.45" gradientUnits="userSpaceOnUse"><stop offset="0.22" stop-color="#32d4f5" /><stop offset="1" stop-color="#198ab3" /></linearGradient><linearGradient id="b46fc246-25d8-4398-8779-1042e8cacae7" x1="8.61" y1="-0.4" x2="9.6" y2="11.92" gradientUnits="userSpaceOnUse"><stop offset="0.22" stop-color="#32d4f5" /><stop offset="1" stop-color="#198ab3" /></linearGradient></defs><title>Icon-identity-230</title><path d="M15.72,18a1.45,1.45,0,0,0,1.45-1.45.47.47,0,0,0,0-.17C16.59,11.81,14,8.09,9,8.09S1.34,11.24.83,16.39A1.46,1.46,0,0,0,2.14,18H15.72Z" fill="url(#be92901b-ec33-4c65-adf1-9b0eed06d677)" /><path d="M9,9.17a4.59,4.59,0,0,1-2.48-.73L9,14.86l2.44-6.38A4.53,4.53,0,0,1,9,9.17Z" fill="#fff" opacity="0.8" /><circle cx="9.01" cy="4.58" r="4.58" fill="url(#b46fc246-25d8-4398-8779-1042e8cacae7)" /></svg><text class="dg-prod" x="78" y="103">Engineer 1</text><svg x="40" y="300" width="30" height="30" id="e24671f6-f501-4952-a2db-8b0b1d329c17" xmlns="http://www.w3.org/2000/svg" viewBox="0 0 18 18"><defs><linearGradient id="be92901b-ec33-4c65-adf1-9b0eed06d677" x1="9" y1="6.88" x2="9" y2="20.45" gradientUnits="userSpaceOnUse"><stop offset="0.22" stop-color="#32d4f5" /><stop offset="1" stop-color="#198ab3" /></linearGradient><linearGradient id="b46fc246-25d8-4398-8779-1042e8cacae7" x1="8.61" y1="-0.4" x2="9.6" y2="11.92" gradientUnits="userSpaceOnUse"><stop offset="0.22" stop-color="#32d4f5" /><stop offset="1" stop-color="#198ab3" /></linearGradient></defs><title>Icon-identity-230</title><path d="M15.72,18a1.45,1.45,0,0,0,1.45-1.45.47.47,0,0,0,0-.17C16.59,11.81,14,8.09,9,8.09S1.34,11.24.83,16.39A1.46,1.46,0,0,0,2.14,18H15.72Z" fill="url(#be92901b-ec33-4c65-adf1-9b0eed06d677)" /><path d="M9,9.17a4.59,4.59,0,0,1-2.48-.73L9,14.86l2.44-6.38A4.53,4.53,0,0,1,9,9.17Z" fill="#fff" opacity="0.8" /><circle cx="9.01" cy="4.58" r="4.58" fill="url(#b46fc246-25d8-4398-8779-1042e8cacae7)" /></svg><text class="dg-prod" x="78" y="313">Engineer 2</text><svg x="250" y="190" width="30" height="30" id="a5c2c34a-a5f9-4043-a084-e51b74497895" xmlns="http://www.w3.org/2000/svg" viewBox="0 0 18 18"><defs><linearGradient id="f97360fa-fd13-420b-9b43-74b8dde83a11" x1="6.7" y1="7.26" x2="6.7" y2="18.36" gradientUnits="userSpaceOnUse"><stop offset="0.22" stop-color="#32d4f5" /><stop offset="1" stop-color="#198ab3" /></linearGradient><linearGradient id="b2ab4071-529d-4450-9443-e6dc0939cc4e" x1="6.42" y1="1.32" x2="7.23" y2="11.39" gradientUnits="userSpaceOnUse"><stop offset="0.22" stop-color="#32d4f5" /><stop offset="1" stop-color="#198ab3" /></linearGradient></defs><title>Icon-identity-223</title><path d="M17.22,13.92a.79.79,0,0,0,.8-.79A.28.28,0,0,0,18,13c-.31-2.5-1.74-4.54-4.46-4.54S9.35,10.22,9.07,13a.81.81,0,0,0,.72.88h7.43Z" fill="#0078d4" /><path d="M13.55,9.09a2.44,2.44,0,0,1-1.36-.4l1.35,3.52,1.33-3.49A2.54,2.54,0,0,1,13.55,9.09Z" fill="#fff" opacity="0.8" /><circle cx="13.55" cy="6.58" r="2.51" fill="#0078d4" /><path d="M12.19,16.36a1.19,1.19,0,0,0,1.19-1.19.66.66,0,0,0,0-.14c-.47-3.74-2.6-6.78-6.66-6.78S.44,10.83,0,15a1.2,1.2,0,0,0,1.07,1.31h11.1Z" fill="url(#f97360fa-fd13-420b-9b43-74b8dde83a11)" /><path d="M6.77,9.14a3.72,3.72,0,0,1-2-.6l2,5.25,2-5.21A3.81,3.81,0,0,1,6.77,9.14Z" fill="#fff" opacity="0.8" /><circle cx="6.74" cy="5.39" r="3.75" fill="url(#b2ab4071-529d-4450-9443-e6dc0939cc4e)" /></svg><text class="dg-prod" x="288" y="203">Security group</text><text class="dg-label" x="288" y="217">grp-vault-readers</text><svg x="460" y="300" width="30" height="30" id="bc93169a-24c4-4686-9f37-c7e4f53b3d34" xmlns="http://www.w3.org/2000/svg" viewBox="0 0 18 18"><defs><radialGradient id="fb114c93-7c16-4540-899a-0796041629e6" cx="9" cy="9" r="8.5" gradientUnits="userSpaceOnUse"><stop offset="0.18" stop-color="#5ea0ef" /><stop offset="0.56" stop-color="#5c9fee" /><stop offset="0.69" stop-color="#559ced" /><stop offset="0.78" stop-color="#4a97e9" /><stop offset="0.86" stop-color="#3990e4" /><stop offset="0.93" stop-color="#2387de" /><stop offset="0.99" stop-color="#087bd6" /><stop offset="1" stop-color="#0078d4" /></radialGradient><radialGradient id="ec478bd3-5b38-4e7f-b661-11f355578bff" cx="38.95" cy="182.07" r="9.88" gradientTransform="translate(-28.71 -163.24) scale(0.94 0.94)" gradientUnits="userSpaceOnUse"><stop offset="0.27" stop-color="#ffd70f" /><stop offset="0.49" stop-color="#ffcb12" /><stop offset="0.88" stop-color="#feac19" /><stop offset="1" stop-color="#fea11b" /></radialGradient></defs><title>Icon-security-245</title><path id="aacf8311-a317-400f-b613-74bd00da5ce3" d="M9,.5A8.5,8.5,0,1,0,17.5,9,8.51,8.51,0,0,0,9,.5ZM9,16.34A7.34,7.34,0,1,1,16.34,9,7.34,7.34,0,0,1,9,16.34Z" fill="url(#fb114c93-7c16-4540-899a-0796041629e6)" /><circle cx="9" cy="9" r="7.34" fill="#fff" /><g><path id="bd983c41-db73-40ec-a4f4-da1213fc9924" d="M13.44,7.33a1.84,1.84,0,0,0,0-2.59h0L10.29,1.58a1.83,1.83,0,0,0-2.58,0h0L4.56,4.74a1.84,1.84,0,0,0,0,2.59L7.18,10a.51.51,0,0,1,.15.36v4.88a.63.63,0,0,0,.18.44l1.2,1.2a.41.41,0,0,0,.58,0l1.16-1.16h0l.68-.68a.25.25,0,0,0,0-.34l-.49-.49a.27.27,0,0,1,0-.37l.49-.49a.25.25,0,0,0,0-.34l-.49-.49a.27.27,0,0,1,0-.37l.49-.49a.25.25,0,0,0,0-.34l-.68-.69v-.25ZM9,2.35A1,1,0,0,1,9,4.42,1,1,0,1,1,9,2.35Z" fill="url(#ec478bd3-5b38-4e7f-b661-11f355578bff)" /><path id="ad2e7e44-9bfd-4775-8bf4-8ef26a544921" d="M8.18,15.3h0a.23.23,0,0,0,.38-.17v-4a.24.24,0,0,0-.11-.2h0a.22.22,0,0,0-.34.2v4A.28.28,0,0,0,8.18,15.3Z" fill="#ff9300" opacity="0.75" /><rect id="a996fbff-3936-4b24-b407-369336c143ba" x="6.48" y="5.79" width="5.17" height="0.61" rx="0.28" fill="#ff9300" opacity="0.75" /><rect id="bb12d31c-3352-4a18-87dd-a169a4a8721d" x="6.48" y="6.78" width="5.17" height="0.61" rx="0.28" fill="#ff9300" opacity="0.75" /></g></svg><text class="dg-prod" x="498" y="313">Key Vault</text><text class="dg-label" x="498" y="327">one secret</text><text class="dg-pen-t" x="320" y="372" text-anchor="middle">membership is the access control</text>
</svg>
