<svg xmlns="http://www.w3.org/2000/svg" viewBox="0 0 640 420" role="img" aria-label="The Activity log streams into a Log Analytics workspace, which is queried in KQL, and a query is turned into an alert rule.">
<style>
.dg-box{fill:none;stroke:#16130F;stroke-width:1.5}
.dg-box.sub{stroke-dasharray:5 3;stroke-width:1.25}
.dg-label{font-family:'Space Mono',ui-monospace,monospace;font-size:9.5px;fill:#6B6357;letter-spacing:.08em;text-transform:uppercase}
.dg-prod{font-family:'Inter Tight',system-ui,sans-serif;font-size:11px;font-weight:500;fill:#16130F}
.dg-sub{font-family:'Inter Tight',system-ui,sans-serif;font-size:10px;fill:#4A443B}
.dg-arrow{stroke:#16130F;stroke-width:1.5;fill:none}
.dg-pen{stroke:#C4360E;stroke-width:2;fill:none;stroke-linecap:round}
.dg-pen-t{font-family:'Fraunces',Georgia,serif;font-style:italic;font-size:12.5px;fill:#C4360E}</style>
<rect x="0" y="0" width="640" height="420" fill="#FBF8F1"/>
<defs><marker id="ar" markerWidth="9" markerHeight="9" refX="8" refY="4.5" orient="auto"><path d="M0,0 L9,4.5 L0,9 Z" fill="#16130F"/></marker><marker id="arp" markerWidth="9" markerHeight="9" refX="8" refY="4.5" orient="auto"><path d="M0,0 L9,4.5 L0,9 Z" fill="#C4360E"/></marker></defs><rect class="dg-box" x="8" y="26" width="624" height="372" rx="4"/><text class="dg-label" x="18" y="20">Resource group · rg-lab-obs</text><path class="dg-arrow" d="M146,209 L239,206" marker-end="url(#ar)"/><text class="dg-label" x="192.5" y="199.5" text-anchor="middle">stream</text><path class="dg-arrow" d="M288,217 L452,303" marker-end="url(#ar)"/><text class="dg-label" x="370" y="252" text-anchor="middle">query → alert</text><rect class="dg-box sub" x="40" y="190" width="160" height="40" rx="5"/><text class="dg-prod" x="120" y="208" text-anchor="middle">Activity log</text><text class="dg-label" x="120" y="221" text-anchor="middle">raw events</text><svg x="250" y="190" width="30" height="30" id="b388e944-5509-49c9-84d7-f38bffa995b2" xmlns="http://www.w3.org/2000/svg" viewBox="0 0 18 18"><defs><linearGradient id="a997e203-1d7d-4cb9-b131-5dc44e029b46" x1="5.23" y1="17.45" x2="5.23" y2="8.09" gradientUnits="userSpaceOnUse"><stop offset="0" stop-color="#1988d9" /><stop offset="0.9" stop-color="#54aef0" /></linearGradient><linearGradient id="e122e9d8-aee5-4f1a-a60e-b1eae355daa5" x1="11.5" y1="12.45" x2="11.5" y2="0.55" gradientUnits="userSpaceOnUse"><stop offset="0" stop-color="#198ab3" /><stop offset="0.01" stop-color="#198bb4" /><stop offset="0.44" stop-color="#27b2d7" /><stop offset="0.79" stop-color="#2fcbed" /><stop offset="1" stop-color="#32d4f5" /></linearGradient></defs><title>Icon-manage-307</title><path d="M5.59,13.13H9.91v4.32H5.59ZM1.15,17.45H4.87V13.13H.55v3.72A.6.6,0,0,0,1.15,17.45Zm-.6-5H4.87V8.09H.55Z" fill="url(#a997e203-1d7d-4cb9-b131-5dc44e029b46)" /><path d="M11.5.55a5.89,5.89,0,0,1,5.95,6,5.89,5.89,0,0,1-5.95,5.95H5.55V6.5A5.89,5.89,0,0,1,11.5.55Z" fill-rule="evenodd" fill="url(#e122e9d8-aee5-4f1a-a60e-b1eae355daa5)" /><rect x="7.59" y="5.65" width="1.36" height="4.08" fill="#fff" /><rect x="10.31" y="7.01" width="1.36" height="2.72" fill="#fff" /><rect x="13.03" y="4.29" width="1.36" height="5.44" fill="#fff" /></svg><text class="dg-prod" x="288" y="203">Log Analytics</text><text class="dg-label" x="288" y="217">query in KQL</text><svg x="460" y="300" width="30" height="30" id="e4e764cd-2e73-472f-b88a-bf8bfc2c2994" xmlns="http://www.w3.org/2000/svg" viewBox="0 0 18 18"><defs><radialGradient id="ac8b32da-30ca-4b92-8d0f-8d2d5ef278a0" cx="5.72" cy="7.45" r="8.42" gradientTransform="translate(3.23 1.51) scale(1.01 1.01)" gradientUnits="userSpaceOnUse"><stop offset="0.18" stop-color="#5ea0ef" /><stop offset="0.56" stop-color="#5c9fee" /><stop offset="0.69" stop-color="#559ced" /><stop offset="0.78" stop-color="#4a97e9" /><stop offset="0.86" stop-color="#3990e4" /><stop offset="0.93" stop-color="#2387de" /><stop offset="0.99" stop-color="#087bd6" /><stop offset="1" stop-color="#0078d4" /></radialGradient><radialGradient id="a9954820-cb38-4943-9842-f0a568d2b015" cx="28.18" cy="202.29" r="2.7" gradientTransform="translate(-17.77 -185.01) scale(0.95)" gradientUnits="userSpaceOnUse"><stop offset="0.19" stop-color="#8c8e90" /><stop offset="0.35" stop-color="#848688" /><stop offset="0.6" stop-color="#6e7071" /><stop offset="0.91" stop-color="#4a4b4c" /><stop offset="1" stop-color="#3e3f3f" /></radialGradient></defs><title>Icon-manage-317</title><ellipse cx="9" cy="9" rx="8.5" ry="8.47" fill="url(#ac8b32da-30ca-4b92-8d0f-8d2d5ef278a0)" /><ellipse cx="9" cy="9" rx="7.4" ry="7.37" fill="#fff" /><path d="M2.72,9.44a6.24,6.24,0,0,0,1.82,4l2-2a3.53,3.53,0,0,1-1-2Z" fill="#9cebff" /><path d="M13.13,4.27A6.25,6.25,0,0,0,9.44,2.74V5.53a3.41,3.41,0,0,1,1.71.7Z" fill="#32bedd" /><path d="M4.87,4.27l2,2a3.41,3.41,0,0,1,1.71-.7V2.74A6.25,6.25,0,0,0,4.87,4.27Z" fill="#32bedd" /><path d="M11.78,6.85a3.6,3.6,0,0,1,.71,1.71h2.79a6.16,6.16,0,0,0-1.53-3.67Z" fill="#32bedd" /><path d="M6.22,6.85l-2-2A6.16,6.16,0,0,0,2.72,8.56H5.51A3.6,3.6,0,0,1,6.22,6.85Z" fill="#50e6ff" /><path d="M14.14,7a.45.45,0,0,0-.57-.25L9.45,8.41l.32.81,4.12-1.63A.44.44,0,0,0,14.14,7Z" fill="#f04049" /><ellipse cx="9" cy="9" rx="1.2" ry="1.2" fill="url(#a9954820-cb38-4943-9842-f0a568d2b015)" /></svg><text class="dg-prod" x="498" y="313">Alert rule</text><text class="dg-label" x="498" y="327">fires on a match</text><text class="dg-pen-t" x="320" y="372" text-anchor="middle">logs you cannot query are just storage</text>
</svg>
