<svg xmlns="http://www.w3.org/2000/svg" viewBox="0 0 640 420" role="img" aria-label="A resource group with a hub virtual network peered to two spoke virtual networks. Each spoke peers only to the hub; a red X between the two spokes shows there is no direct spoke-to-spoke path. Spoke A is wrapped by an NSG.">
<style>
.dg-box{fill:none;stroke:#16130F;stroke-width:1.5}
.dg-box.sub{stroke-dasharray:5 3;stroke-width:1.25}
.dg-label{font-family:'Space Mono',ui-monospace,monospace;font-size:9.5px;fill:#6B6357;letter-spacing:.08em;text-transform:uppercase}
.dg-prod{font-family:'Inter Tight',system-ui,sans-serif;font-size:11px;font-weight:500;fill:#16130F}
.dg-sub{font-family:'Inter Tight',system-ui,sans-serif;font-size:10px;fill:#4A443B}
.dg-arrow{stroke:#16130F;stroke-width:1.5;fill:none}
.dg-pen{stroke:#C4360E;stroke-width:2;fill:none;stroke-linecap:round}
.dg-pen-t{font-family:'Fraunces',Georgia,serif;font-style:italic;font-size:12.5px;fill:#C4360E}</style>
<rect x="0" y="0" width="640" height="420" fill="#FBF8F1"/>
<defs><marker id="ar" markerWidth="9" markerHeight="9" refX="8" refY="4.5" orient="auto"><path d="M0,0 L9,4.5 L0,9 Z" fill="#16130F"/></marker><marker id="arp" markerWidth="9" markerHeight="9" refX="8" refY="4.5" orient="auto"><path d="M0,0 L9,4.5 L0,9 Z" fill="#C4360E"/></marker></defs><rect class="dg-box" x="8" y="26" width="624" height="372" rx="4"/><text class="dg-label" x="18" y="20">Resource group · rg-hubspoke</text><rect class="dg-box sub" x="44" y="284" width="250" height="96" rx="4"/><text class="dg-label" x="54" y="278">NSG</text><path class="dg-arrow" d="M249,106 L101,304" marker-end="url(#ar)" marker-start="url(#ar)"/><text class="dg-label" x="175" y="197" text-anchor="middle">peering</text><path class="dg-arrow" d="M281,106 L429,304" marker-end="url(#ar)" marker-start="url(#ar)"/><text class="dg-label" x="355" y="197" text-anchor="middle">peering</text><path class="dg-arrow" d="M109,325 L421,325" stroke-dasharray="4 4"/><path class="dg-pen" d="M257,317 L273,333 M273,317 L257,333"/><svg x="250" y="70" width="30" height="30" id="a1606a52-fb14-4637-87de-4d524bba1829" xmlns="http://www.w3.org/2000/svg" viewBox="0 0 18 18"><defs><linearGradient id="f020fb7e-2243-4501-8153-5d69bd3c34f7" x1="9.88" y1="8.59" x2="11.52" y2="10.23" gradientTransform="translate(2.03 -0.4) rotate(-0.08)" gradientUnits="userSpaceOnUse"><stop offset="0" stop-color="#86d633" /><stop offset="1" stop-color="#5e9624" /></linearGradient><linearGradient id="b3c2bc94-8c7c-48a2-9719-6ee899a43a97" x1="6.18" y1="8.59" x2="7.81" y2="10.23" gradientUnits="userSpaceOnUse"><stop offset="0" stop-color="#86d633" /><stop offset="1" stop-color="#5e9624" /></linearGradient><linearGradient id="e900c35d-0958-4d4f-b28f-302eeaaf52f5" x1="2.48" y1="8.59" x2="4.11" y2="10.23" gradientUnits="userSpaceOnUse"><stop offset="0" stop-color="#86d633" /><stop offset="1" stop-color="#5e9624" /></linearGradient></defs><title>Icon-networking-61</title><circle cx="12.74" cy="8.99" r="1.16" fill="url(#f020fb7e-2243-4501-8153-5d69bd3c34f7)" /><circle cx="9.04" cy="9" r="1.16" fill="url(#b3c2bc94-8c7c-48a2-9719-6ee899a43a97)" /><circle cx="5.34" cy="9" r="1.16" fill="url(#e900c35d-0958-4d4f-b28f-302eeaaf52f5)" /><path d="M2.61,7.28h.94a.3.3,0,0,1,.3.3v6.94a.6.6,0,0,1-.6.6H2.31a0,0,0,0,1,0,0V7.58a.3.3,0,0,1,.3-.3Z" transform="translate(13.18 16.93) rotate(134.92)" fill="#50e6ff" /><path d="M2.56,2.91H3.5a.3.3,0,0,1,.3.3v7.43a0,0,0,0,1,0,0H2.86a.6.6,0,0,1-.6-.6V3.21a.3.3,0,0,1,.3-.3Z" transform="translate(5.66 -0.16) rotate(44.92)" fill="#1490df" /><path d="M14.15,7.28h.94a.6.6,0,0,1,.6.6v6.94a.3.3,0,0,1-.3.3h-.94a.3.3,0,0,1-.3-.3V7.28a0,0,0,0,1,0,0Z" transform="translate(12.32 -7.28) rotate(45.08)" fill="#50e6ff" /><path d="M14.81,2.91h.94a0,0,0,0,1,0,0v7.43a.3.3,0,0,1-.3.3H14.5a.3.3,0,0,1-.3-.3V3.51a.6.6,0,0,1,.6-.6Z" transform="translate(30.36 0.99) rotate(135.08)" fill="#1490df" /></svg><text class="dg-prod" x="288" y="83">Hub</text><text class="dg-label" x="288" y="97">vnet-hub 10.0.0.0/16</text><svg x="70" y="310" width="30" height="30" id="a1606a52-fb14-4637-87de-4d524bba1829" xmlns="http://www.w3.org/2000/svg" viewBox="0 0 18 18"><defs><linearGradient id="f020fb7e-2243-4501-8153-5d69bd3c34f7" x1="9.88" y1="8.59" x2="11.52" y2="10.23" gradientTransform="translate(2.03 -0.4) rotate(-0.08)" gradientUnits="userSpaceOnUse"><stop offset="0" stop-color="#86d633" /><stop offset="1" stop-color="#5e9624" /></linearGradient><linearGradient id="b3c2bc94-8c7c-48a2-9719-6ee899a43a97" x1="6.18" y1="8.59" x2="7.81" y2="10.23" gradientUnits="userSpaceOnUse"><stop offset="0" stop-color="#86d633" /><stop offset="1" stop-color="#5e9624" /></linearGradient><linearGradient id="e900c35d-0958-4d4f-b28f-302eeaaf52f5" x1="2.48" y1="8.59" x2="4.11" y2="10.23" gradientUnits="userSpaceOnUse"><stop offset="0" stop-color="#86d633" /><stop offset="1" stop-color="#5e9624" /></linearGradient></defs><title>Icon-networking-61</title><circle cx="12.74" cy="8.99" r="1.16" fill="url(#f020fb7e-2243-4501-8153-5d69bd3c34f7)" /><circle cx="9.04" cy="9" r="1.16" fill="url(#b3c2bc94-8c7c-48a2-9719-6ee899a43a97)" /><circle cx="5.34" cy="9" r="1.16" fill="url(#e900c35d-0958-4d4f-b28f-302eeaaf52f5)" /><path d="M2.61,7.28h.94a.3.3,0,0,1,.3.3v6.94a.6.6,0,0,1-.6.6H2.31a0,0,0,0,1,0,0V7.58a.3.3,0,0,1,.3-.3Z" transform="translate(13.18 16.93) rotate(134.92)" fill="#50e6ff" /><path d="M2.56,2.91H3.5a.3.3,0,0,1,.3.3v7.43a0,0,0,0,1,0,0H2.86a.6.6,0,0,1-.6-.6V3.21a.3.3,0,0,1,.3-.3Z" transform="translate(5.66 -0.16) rotate(44.92)" fill="#1490df" /><path d="M14.15,7.28h.94a.6.6,0,0,1,.6.6v6.94a.3.3,0,0,1-.3.3h-.94a.3.3,0,0,1-.3-.3V7.28a0,0,0,0,1,0,0Z" transform="translate(12.32 -7.28) rotate(45.08)" fill="#50e6ff" /><path d="M14.81,2.91h.94a0,0,0,0,1,0,0v7.43a.3.3,0,0,1-.3.3H14.5a.3.3,0,0,1-.3-.3V3.51a.6.6,0,0,1,.6-.6Z" transform="translate(30.36 0.99) rotate(135.08)" fill="#1490df" /></svg><text class="dg-prod" x="108" y="323">Spoke A</text><text class="dg-label" x="108" y="337">vnet-spoke-a 10.1.0.0/16</text><svg x="430" y="310" width="30" height="30" id="a1606a52-fb14-4637-87de-4d524bba1829" xmlns="http://www.w3.org/2000/svg" viewBox="0 0 18 18"><defs><linearGradient id="f020fb7e-2243-4501-8153-5d69bd3c34f7" x1="9.88" y1="8.59" x2="11.52" y2="10.23" gradientTransform="translate(2.03 -0.4) rotate(-0.08)" gradientUnits="userSpaceOnUse"><stop offset="0" stop-color="#86d633" /><stop offset="1" stop-color="#5e9624" /></linearGradient><linearGradient id="b3c2bc94-8c7c-48a2-9719-6ee899a43a97" x1="6.18" y1="8.59" x2="7.81" y2="10.23" gradientUnits="userSpaceOnUse"><stop offset="0" stop-color="#86d633" /><stop offset="1" stop-color="#5e9624" /></linearGradient><linearGradient id="e900c35d-0958-4d4f-b28f-302eeaaf52f5" x1="2.48" y1="8.59" x2="4.11" y2="10.23" gradientUnits="userSpaceOnUse"><stop offset="0" stop-color="#86d633" /><stop offset="1" stop-color="#5e9624" /></linearGradient></defs><title>Icon-networking-61</title><circle cx="12.74" cy="8.99" r="1.16" fill="url(#f020fb7e-2243-4501-8153-5d69bd3c34f7)" /><circle cx="9.04" cy="9" r="1.16" fill="url(#b3c2bc94-8c7c-48a2-9719-6ee899a43a97)" /><circle cx="5.34" cy="9" r="1.16" fill="url(#e900c35d-0958-4d4f-b28f-302eeaaf52f5)" /><path d="M2.61,7.28h.94a.3.3,0,0,1,.3.3v6.94a.6.6,0,0,1-.6.6H2.31a0,0,0,0,1,0,0V7.58a.3.3,0,0,1,.3-.3Z" transform="translate(13.18 16.93) rotate(134.92)" fill="#50e6ff" /><path d="M2.56,2.91H3.5a.3.3,0,0,1,.3.3v7.43a0,0,0,0,1,0,0H2.86a.6.6,0,0,1-.6-.6V3.21a.3.3,0,0,1,.3-.3Z" transform="translate(5.66 -0.16) rotate(44.92)" fill="#1490df" /><path d="M14.15,7.28h.94a.6.6,0,0,1,.6.6v6.94a.3.3,0,0,1-.3.3h-.94a.3.3,0,0,1-.3-.3V7.28a0,0,0,0,1,0,0Z" transform="translate(12.32 -7.28) rotate(45.08)" fill="#50e6ff" /><path d="M14.81,2.91h.94a0,0,0,0,1,0,0v7.43a.3.3,0,0,1-.3.3H14.5a.3.3,0,0,1-.3-.3V3.51a.6.6,0,0,1,.6-.6Z" transform="translate(30.36 0.99) rotate(135.08)" fill="#1490df" /></svg><text class="dg-prod" x="468" y="323">Spoke B</text><text class="dg-label" x="468" y="337">vnet-spoke-b 10.2.0.0/16</text><text class="dg-pen-t" x="320" y="360" text-anchor="middle">no spoke-to-spoke path</text>
</svg>
