<svg xmlns="http://www.w3.org/2000/svg" viewBox="0 0 640 420" role="img" aria-label="A user signs in through a Microsoft Entra app registration, which issues a token to a web portal running on App Service. The portal trusts Entra rather than its own password store.">
<style>
.dg-box{fill:none;stroke:#16130F;stroke-width:1.5}
.dg-box.sub{stroke-dasharray:5 3;stroke-width:1.25}
.dg-label{font-family:'Space Mono',ui-monospace,monospace;font-size:9.5px;fill:#6B6357;letter-spacing:.08em;text-transform:uppercase}
.dg-prod{font-family:'Inter Tight',system-ui,sans-serif;font-size:11px;font-weight:500;fill:#16130F}
.dg-sub{font-family:'Inter Tight',system-ui,sans-serif;font-size:10px;fill:#4A443B}
.dg-arrow{stroke:#16130F;stroke-width:1.5;fill:none}
.dg-pen{stroke:#C4360E;stroke-width:2;fill:none;stroke-linecap:round}
.dg-pen-t{font-family:'Fraunces',Georgia,serif;font-style:italic;font-size:12.5px;fill:#C4360E}</style>
<rect x="0" y="0" width="640" height="420" fill="#FBF8F1"/>
<defs><marker id="ar" markerWidth="9" markerHeight="9" refX="8" refY="4.5" orient="auto"><path d="M0,0 L9,4.5 L0,9 Z" fill="#16130F"/></marker><marker id="arp" markerWidth="9" markerHeight="9" refX="8" refY="4.5" orient="auto"><path d="M0,0 L9,4.5 L0,9 Z" fill="#C4360E"/></marker></defs><path class="dg-arrow" d="M79,195 L296,110" marker-end="url(#ar)"/><text class="dg-label" x="187.5" y="144.5" text-anchor="middle">sign in</text><path class="dg-arrow" d="M333,122 L432,293" marker-end="url(#ar)"/><text class="dg-label" x="382.5" y="199.5" text-anchor="middle">issues token</text><svg x="40" y="190" width="30" height="30" id="e24671f6-f501-4952-a2db-8b0b1d329c17" xmlns="http://www.w3.org/2000/svg" viewBox="0 0 18 18"><defs><linearGradient id="be92901b-ec33-4c65-adf1-9b0eed06d677" x1="9" y1="6.88" x2="9" y2="20.45" gradientUnits="userSpaceOnUse"><stop offset="0.22" stop-color="#32d4f5" /><stop offset="1" stop-color="#198ab3" /></linearGradient><linearGradient id="b46fc246-25d8-4398-8779-1042e8cacae7" x1="8.61" y1="-0.4" x2="9.6" y2="11.92" gradientUnits="userSpaceOnUse"><stop offset="0.22" stop-color="#32d4f5" /><stop offset="1" stop-color="#198ab3" /></linearGradient></defs><title>Icon-identity-230</title><path d="M15.72,18a1.45,1.45,0,0,0,1.45-1.45.47.47,0,0,0,0-.17C16.59,11.81,14,8.09,9,8.09S1.34,11.24.83,16.39A1.46,1.46,0,0,0,2.14,18H15.72Z" fill="url(#be92901b-ec33-4c65-adf1-9b0eed06d677)" /><path d="M9,9.17a4.59,4.59,0,0,1-2.48-.73L9,14.86l2.44-6.38A4.53,4.53,0,0,1,9,9.17Z" fill="#fff" opacity="0.8" /><circle cx="9.01" cy="4.58" r="4.58" fill="url(#b46fc246-25d8-4398-8779-1042e8cacae7)" /></svg><text class="dg-prod" x="78" y="203">User</text><text class="dg-label" x="78" y="217">a Campux engineer</text><rect class="dg-box sub" x="230" y="80" width="180" height="40" rx="5"/><text class="dg-prod" x="320" y="98" text-anchor="middle">App registration</text><text class="dg-label" x="320" y="111" text-anchor="middle">Microsoft Entra ID</text><svg x="430" y="300" width="30" height="30" id="b70acf0a-34b4-4bdf-9024-7496043ff915" xmlns="http://www.w3.org/2000/svg" viewBox="0 0 18 18"><defs><radialGradient id="e2cf8746-c9a8-4eee-86c2-4951983c6032" cx="13428.81" cy="3518.86" r="56.67" gradientTransform="translate(-2005.33 -518.83) scale(0.15)" gradientUnits="userSpaceOnUse"><stop offset="0.18" stop-color="#5ea0ef" /><stop offset="1" stop-color="#0078d4" /></radialGradient><linearGradient id="bdd213dd-d313-473c-8ff4-0133fd3a9033" x1="4.4" y1="11.48" x2="4.37" y2="7.53" gradientUnits="userSpaceOnUse"><stop offset="0" stop-color="#ccc" /><stop offset="1" stop-color="#fcfcfc" /></linearGradient><linearGradient id="afcc63c5-3649-4476-a742-bcb53a569f3c" x1="10.13" y1="15.45" x2="10.13" y2="11.9" gradientUnits="userSpaceOnUse"><stop offset="0" stop-color="#ccc" /><stop offset="1" stop-color="#fcfcfc" /></linearGradient><linearGradient id="bd873f0b-9954-4aa5-a3df-9f4c64e8729d" x1="14.18" y1="11.15" x2="14.18" y2="7.38" gradientUnits="userSpaceOnUse"><stop offset="0" stop-color="#ccc" /><stop offset="1" stop-color="#fcfcfc" /></linearGradient></defs><title>Icon-web-41</title><path id="ee75dd06-1aca-4f76-9d11-d05a284020ad" d="M14.21,15.72A8.5,8.5,0,0,1,3.79,2.28l.09-.06a8.5,8.5,0,0,1,10.33,13.5" fill="url(#e2cf8746-c9a8-4eee-86c2-4951983c6032)" /><path d="M6.69,7.23A13,13,0,0,1,15.6,3.65a8.47,8.47,0,0,0-1.49-1.44,14.34,14.34,0,0,0-4.69,1.1A12.54,12.54,0,0,0,5.34,6.13,2.76,2.76,0,0,1,6.69,7.23Z" fill="#fff" opacity="0.6" /><path d="M2.48,10.65a17.86,17.86,0,0,0-.83,2.62,7.82,7.82,0,0,0,.62.92c.18.23.35.44.55.65A17.94,17.94,0,0,1,3.9,11.37,2.76,2.76,0,0,1,2.48,10.65Z" fill="#fff" opacity="0.6" /><path d="M3.46,6.11a12,12,0,0,1-.69-2.94,8.15,8.15,0,0,0-1.1,1.45A12.69,12.69,0,0,0,2.24,7,2.69,2.69,0,0,1,3.46,6.11Z" fill="#f2f2f2" opacity="0.55" /><circle cx="4.38" cy="8.68" r="2.73" fill="url(#bdd213dd-d313-473c-8ff4-0133fd3a9033)" /><path d="M8.36,13.67A1.77,1.77,0,0,1,8.9,12.4a11.88,11.88,0,0,1-2.53-1.86,2.74,2.74,0,0,1-1.49.83,13.1,13.1,0,0,0,1.45,1.28A12.12,12.12,0,0,0,8.38,13.9,1.79,1.79,0,0,1,8.36,13.67Z" fill="#f2f2f2" opacity="0.55" /><path d="M14.66,13.88a12,12,0,0,1-2.76-.32.41.41,0,0,1,0,.11,1.75,1.75,0,0,1-.51,1.24,13.69,13.69,0,0,0,3.42.24A8.21,8.21,0,0,0,16,13.81,11.5,11.5,0,0,1,14.66,13.88Z" fill="#f2f2f2" opacity="0.55" /><circle cx="10.13" cy="13.67" r="1.78" fill="url(#afcc63c5-3649-4476-a742-bcb53a569f3c)" /><path d="M12.32,8.93a1.83,1.83,0,0,1,.61-1A25.5,25.5,0,0,1,8.47,3.79a16.91,16.91,0,0,1-2-2.92,7.64,7.64,0,0,0-1.09.42A18.14,18.14,0,0,0,7.53,4.47,26.44,26.44,0,0,0,12.32,8.93Z" fill="#f2f2f2" opacity="0.7" /><circle cx="14.18" cy="9.27" r="1.89" fill="url(#bd873f0b-9954-4aa5-a3df-9f4c64e8729d)" /><path d="M17.35,10.54,17,10.37l0,0-.3-.16-.06,0L16.38,10l-.07,0L16,9.8a1.76,1.76,0,0,1-.64.92c.12.08.25.15.38.22l.08.05.35.19,0,0,.86.45h0a8.63,8.63,0,0,0,.29-1.11Z" fill="#f2f2f2" opacity="0.55" /><circle cx="4.38" cy="8.68" r="2.73" fill="url(#bdd213dd-d313-473c-8ff4-0133fd3a9033)" /><circle cx="10.13" cy="13.67" r="1.78" fill="url(#afcc63c5-3649-4476-a742-bcb53a569f3c)" /></svg><text class="dg-prod" x="468" y="313">Web portal</text><text class="dg-label" x="468" y="327">protected by sign-in</text><text class="dg-pen-t" x="320" y="388" text-anchor="middle">the portal trusts Entra, not a password table</text>
</svg>
