<svg xmlns="http://www.w3.org/2000/svg" viewBox="0 0 640 420" role="img" aria-label="A Container App uses a managed identity with the AcrPull role to pull an image from a container registry that has its admin password disabled. The app scales to zero when idle.">
<style>
.dg-box{fill:none;stroke:#16130F;stroke-width:1.5}
.dg-box.sub{stroke-dasharray:5 3;stroke-width:1.25}
.dg-label{font-family:'Space Mono',ui-monospace,monospace;font-size:9.5px;fill:#6B6357;letter-spacing:.08em;text-transform:uppercase}
.dg-prod{font-family:'Inter Tight',system-ui,sans-serif;font-size:11px;font-weight:500;fill:#16130F}
.dg-sub{font-family:'Inter Tight',system-ui,sans-serif;font-size:10px;fill:#4A443B}
.dg-arrow{stroke:#16130F;stroke-width:1.5;fill:none}
.dg-pen{stroke:#C4360E;stroke-width:2;fill:none;stroke-linecap:round}
.dg-pen-t{font-family:'Fraunces',Georgia,serif;font-style:italic;font-size:12.5px;fill:#C4360E}</style>
<rect x="0" y="0" width="640" height="420" fill="#FBF8F1"/>
<defs><marker id="ar" markerWidth="9" markerHeight="9" refX="8" refY="4.5" orient="auto"><path d="M0,0 L9,4.5 L0,9 Z" fill="#16130F"/></marker><marker id="arp" markerWidth="9" markerHeight="9" refX="8" refY="4.5" orient="auto"><path d="M0,0 L9,4.5 L0,9 Z" fill="#C4360E"/></marker></defs><rect class="dg-box" x="8" y="26" width="624" height="372" rx="4"/><text class="dg-label" x="18" y="20">Resource group · rg-lab-containerapps</text><path class="dg-arrow" d="M110,213 L420,307" marker-end="url(#ar)"/><text class="dg-label" x="265" y="252" text-anchor="middle">pull image · via managed identity</text><svg x="70" y="190" width="30" height="30" xmlns="http://www.w3.org/2000/svg" viewBox="0 0 18 18"><defs><linearGradient id="a3a44093-b157-426e-a8fe-cec9f9c23978" x1="11.729" y1="4.88" x2="11.729" y2="13.099" gradientUnits="userSpaceOnUse"><stop offset="0.001" stop-color="#773adc" /><stop offset="0.528" stop-color="#6635bb" /><stop offset="1" stop-color="#552f99" /></linearGradient><linearGradient id="ad838859-03f4-472f-81bc-ebc921d71335" x1="6.35" y1="13.914" x2="6.35" y2="4.198" gradientUnits="userSpaceOnUse"><stop offset="0.001" stop-color="#773adc" /><stop offset="0.307" stop-color="#793ddd" /><stop offset="0.532" stop-color="#8046e1" /><stop offset="0.731" stop-color="#8c56e7" /><stop offset="0.915" stop-color="#9c6def" /><stop offset="1" stop-color="#a67af4" /></linearGradient></defs><g id="ae82470d-7a6c-4dfe-8533-59d8ff948629"><g><path d="M8.617,8.644H.639V1.784A1.16,1.16,0,0,1,1.788.624H8.617ZM1.63,7.653h6V1.594H1.788a.158.158,0,0,0-.158.158h0Z" fill="#949494" /><path d="M17.5,8.644H9.523V.624h6.828A1.16,1.16,0,0,1,17.5,1.784Zm-6.987-.991h6V1.784a.157.157,0,0,0-.123-.187.2.2,0,0,0-.035,0H10.513Z" fill="#949494" /><path d="M8.617,17.485H1.788A1.149,1.149,0,0,1,.639,16.347V9.476H8.617ZM1.63,10.467v5.88a.158.158,0,0,0,.158.158H7.626V10.467Z" fill="#949494" /><path d="M16.351,17.485H9.523V9.476H17.5v6.871A1.149,1.149,0,0,1,16.351,17.485Zm-5.838-.991h5.838a.157.157,0,0,0,.158-.158V10.467h-6Z" fill="#949494" /><path d="M14.6,6.294a.294.294,0,0,0-.2-.278L9.044,4.205A.128.128,0,0,0,9,4.2H9a.132.132,0,0,0-.133.133v9.445A.133.133,0,0,0,9,13.911H9a.138.138,0,0,0,.049-.01l5.365-2.145a.292.292,0,0,0,.184-.272Z" fill="url(#a3a44093-b157-426e-a8fe-cec9f9c23978)" /><path d="M8.966,4.2l-5.293.966a.161.161,0,0,0-.13.158V12.63a.16.16,0,0,0,.126.157L8.962,13.91a.161.161,0,0,0,.191-.121.22.22,0,0,0,0-.036V4.358A.16.16,0,0,0,9,4.2.163.163,0,0,0,8.966,4.2Z" fill="url(#ad838859-03f4-472f-81bc-ebc921d71335)" /><path d="M6.52,5.656v6.8l1.842.3V5.335Zm-2.262.367v5.955l1.6.326V5.754Z" fill="#b796f9" opacity="0.5" /></g></g></svg><text class="dg-prod" x="108" y="203">Container App</text><text class="dg-label" x="108" y="217">scales to zero</text><svg x="70" y="310" width="30" height="30" id="f807cdde-18f2-4574-ba14-f0b1eef94a4a" xmlns="http://www.w3.org/2000/svg" viewBox="0 0 18 18"><defs><linearGradient id="bb67b154-af8f-4a53-a9ce-aa046b9398e9" x1="13.18" y1="13.01" x2="8.63" y2="4.38" gradientUnits="userSpaceOnUse"><stop offset="0" stop-color="#1988d9" /><stop offset="0.9" stop-color="#54aef0" /></linearGradient><linearGradient id="a47d7138-084a-471d-8d63-744e75b9e8a3" x1="11.22" y1="10.5" x2="14.37" y2="15.93" gradientUnits="userSpaceOnUse"><stop offset="0.1" stop-color="#54aef0" /><stop offset="0.29" stop-color="#4fabee" /><stop offset="0.51" stop-color="#41a2e9" /><stop offset="0.74" stop-color="#2a93e0" /><stop offset="0.88" stop-color="#1988d9" /></linearGradient></defs><title>Icon-identity-227</title><g><polygon points="1.15 10.22 8.93 15.27 16.85 10.21 17.85 11.36 8.93 17.11 0.15 11.37 1.15 10.22" fill="#50e6ff" /><polygon points="1.73 9.58 8.93 1 16.28 9.59 8.93 14.23 1.73 9.58" fill="#fff" /><polygon points="8.93 1 8.93 14.23 1.73 9.58 8.93 1" fill="#50e6ff" /><polygon points="8.93 1 8.93 14.23 16.28 9.59 8.93 1" fill="url(#bb67b154-af8f-4a53-a9ce-aa046b9398e9)" /><polygon points="8.93 7.83 16.28 9.59 8.93 14.23 8.93 7.83" fill="#53b1e0" /><polygon points="8.93 14.23 1.73 9.58 8.93 7.83 8.93 14.23" fill="#9cebff" /><polygon points="8.93 17.11 17.85 11.36 16.85 10.21 8.93 15.27 8.93 17.11" fill="url(#a47d7138-084a-471d-8d63-744e75b9e8a3)" /><g><path id="e189a61f-631a-4122-bb2b-079e86004d96" d="M16.32,11.88a1.16,1.16,0,0,0,0-1.65h0l-2-2a1.16,1.16,0,0,0-1.64,0h0l-2,2a1.18,1.18,0,0,0,0,1.65l1.67,1.67a.32.32,0,0,1,.09.23v3.1a.36.36,0,0,0,.12.28l.76.76a.25.25,0,0,0,.37,0l.73-.73h0l.44-.44a.15.15,0,0,0,0-.21l-.31-.31a.16.16,0,0,1,0-.24l.31-.31a.16.16,0,0,0,0-.22l-.31-.31a.15.15,0,0,1,0-.23l.31-.32a.15.15,0,0,0,0-.21l-.44-.44v-.16ZM13.5,8.71a.66.66,0,1,1-.66.66.66.66,0,0,1,.66-.66Z" fill="#ffca00" /><path id="fb7033ee-4650-4886-80c7-eddf62560f85" d="M13,17h0a.14.14,0,0,0,.24-.11V14.33a.16.16,0,0,0-.06-.13h0a.14.14,0,0,0-.22.13v2.51A.15.15,0,0,0,13,17Z" fill="#ff9300" opacity="0.75" /><rect id="b166b8c2-b9ee-4c3d-bf7a-77bd5ce0570b" x="11.9" y="10.9" width="3.29" height="0.39" rx="0.18" fill="#ff9300" opacity="0.75" /><rect id="baf437fe-3483-4a25-94ba-1e84a64cd2eb" x="11.9" y="11.53" width="3.29" height="0.39" rx="0.18" fill="#ff9300" opacity="0.75" /></g></g></svg><text class="dg-prod" x="108" y="323">Managed identity</text><text class="dg-label" x="108" y="337">role: AcrPull</text><svg x="430" y="300" width="30" height="30" id="e9f7ba73-56b8-4864-96ff-dce80bef729a" xmlns="http://www.w3.org/2000/svg" viewBox="0 0 18 18"><defs><linearGradient id="bdf27dc6-025c-4805-8bfd-3a05defd3fbd" x1="8.637" y1="-1.991" x2="8.637" y2="16.739" gradientUnits="userSpaceOnUse"><stop offset="0" stop-color="#5ea0ef" /><stop offset="1" stop-color="#0078d4" /></linearGradient><linearGradient id="fcd6c6c7-e2eb-4a32-b914-3a8485585a1b" x1="12.96" y1="8.561" x2="12.96" y2="6.141" gradientTransform="matrix(1, 0, 0, -1, 0, 20)" gradientUnits="userSpaceOnUse"><stop offset="0" stop-color="#333132" /><stop offset="1" stop-color="#5b5a5c" /></linearGradient></defs><path d="M7.43,8.178l2.589-1.573,7.255,2.731A3.664,3.664,0,0,0,16.23,7.49l-.01-.05A4.194,4.194,0,0,0,14,6.32a4.91,4.91,0,0,0-5.1-4.7A5.071,5.071,0,0,0,4.06,4.91,4.621,4.621,0,0,0,0,9.39a4.73,4.73,0,0,0,4.89,4.54H7.43Z" fill="url(#bdf27dc6-025c-4805-8bfd-3a05defd3fbd)" /><polygon points="10.07 7.159 10.08 11.439 17.99 13.119 17.99 10.139 10.07 7.159" fill="#767676" /><polyline points="10.07 7.159 7.93 8.459 7.93 12.439 10.08 11.439" fill="#999" /><polygon points="13.68 11.499 14.4 11.699 14.4 9.369 13.68 9.119 13.68 11.499" fill="#a3a3a3" /><polygon points="12.96 8.889 12.24 8.629 12.24 11.119 12.96 11.319 12.96 8.889" fill="#a3a3a3" /><polygon points="15.12 11.889 15.82 12.079 15.84 9.859 15.12 9.619 15.12 11.889" fill="#a3a3a3" /><polygon points="10.81 10.749 11.53 10.929 11.53 8.399 10.81 8.159 10.81 10.749" fill="#a3a3a3" /><polygon points="17.27 10.349 16.55 10.099 16.55 12.269 17.27 12.469 17.27 10.349" fill="#a3a3a3" /><path id="ef0d1b54-a1e7-4cb9-a4e5-8a8518e7c127" d="M8.66,11.369l-.36.21V8.749l.36-.19Zm.71-3.22L9,8.389v2.75l.37-.2Z" fill="#b3b3b3" /><polygon points="17.99 13.119 15.83 13.859 7.93 12.439 10.08 11.439 17.99 13.119" fill="url(#fcd6c6c7-e2eb-4a32-b914-3a8485585a1b)" /><polygon points="17.99 16.169 10.04 17.679 10.08 12.089 17.99 13.559 17.99 16.169" fill="#767676" /><polygon points="10.81 16.759 10.81 13.209 11.53 13.299 11.53 16.639 10.81 16.759" fill="#a3a3a3" /><polygon points="12.96 16.399 12.24 16.529 12.24 13.389 12.96 13.499 12.96 16.399 12.96 16.399" fill="#a3a3a3" /><polygon points="13.68 16.289 13.68 13.569 14.4 13.659 14.4 16.159 13.68 16.289" fill="#a3a3a3" /><polygon points="15.83 15.909 15.12 16.039 15.12 13.749 15.83 13.859 15.83 15.909" fill="#a3a3a3" /><polygon points="17.29 15.679 16.55 15.809 16.55 13.929 17.24 14.019 17.29 15.679" fill="#a3a3a3" /><path id="b9f25eb4-4c88-45c2-bc4d-f992757d7e0e" d="M7.93,16.4v-3.26l2.16-1v5.6Z" fill="#999" /><path id="eb9200a7-4693-4427-bdae-b33ce90ff7f2" d="M8.61,16.389l-.32-.16v-2.76l.32-.15Zm.77-3.45-.38.19v3.48l.37.19v-3.86Z" fill="#b3b3b3" /></svg><text class="dg-prod" x="468" y="313">Container Registry</text><text class="dg-label" x="468" y="327">admin password: OFF</text><text class="dg-pen-t" x="320" y="372" text-anchor="middle">no admin password; identity earns the pull</text>
</svg>
